<?xml version="1.0" encoding="UTF-8"?>
<svg width="32px" height="32px" viewBox="0 0 32 32" version="1.1" xmlns="http://www.w3.org/2000/svg">
    <title>Build It Records White Logo</title>
    <g fill="white">
        <path d="M16,0 C7.163444,0 0,7.163444 0,16 C0,24.836556 7.163444,32 16,32 C24.836556,32 32,24.836556 32,16 C32,7.163444 24.836556,0 16,0 Z M16,2 C23.731986,2 30,8.2680135 30,16 C30,23.731986 23.731986,30 16,30 C8.2680135,30 2,23.731986 2,16 C2,8.2680135 8.2680135,2 16,2 Z" />
        <path d="M8,8 L8,24 L12,24 L12,18 L16,18 C20.418278,18 24,14.418278 24,10 C24,8.8954305 21.418278,8 17,8 L8,8 Z M12,12 L16,12 C17.1045695,12 18,11.1045695 18,10 C18,8.8954305 17.1045695,8 16,8 L12,8 L12,12 Z" />
    </g>
</svg>
